# File created by Blade
# Date/Time:  Tue Apr 07 20:41:02 2015
# Frame Rate: 120.000 fps
#------------------------------------------------------
:FULLY-SPECIFIED
:DEGREES
683
root 0.262140 34.184683 0.297215 11.778719 -19.582113 -48.180450
Spine 6.332732 26.446517 35.857053
Head 6.104474 -7.046580 17.295975
LeftShoulder -20.446644 31.612610 25.032625
LeftArm 56.229533 -72.987926 -61.648041
LeftForeArm 10.125852 0.000000 14.695687
LeftHand 6.566474 -0.000000 11.978637
LeftHandThumb1 -26.253704 0.000000 33.147579
RightShoulder -10.205691 39.062540 -31.085215
RightArm 59.602079 78.102604 90.603855
RightForeArm 35.174718 -0.000000 60.223274
RightHand -0.330381 0.000000 30.074554
RightHandThumb1 -24.326973 -0.000000 -32.862282
LeftUpLeg 0.372951 -5.113527 40.659140
LeftLeg 20.506901 -0.000000 -0.000000
LeftFoot -20.734206 37.688091 -9.192030
LeftToeBase -4.224549 -0.000000 0.000000
RightUpLeg -136.767960 -52.005047 23.804168
RightLeg -8.985390 -0.000000 0.000000
RightFoot 36.189177 -16.023294 9.300527
RightToeBase 16.538743 -0.000000 -0.000000
684
root 0.250080 34.195001 0.311939 11.941313 -19.796521 -48.160038
Spine 6.135852 26.583548 35.653430
Head 6.354931 -7.056850 17.362498
LeftShoulder -20.433450 31.631278 25.131042
LeftArm 56.301854 -73.106146 -61.696804
LeftForeArm 10.058774 -0.000000 14.298243
LeftHand 6.556518 -0.000000 11.819063
LeftHandThumb1 -26.253704 0.000000 33.147579
RightShoulder -10.141246 38.920727 -30.962024
RightArm 59.853614 78.082463 90.935488
RightForeArm 35.275763 -0.000000 60.252816
RightHand -0.366428 0.000000 30.206803
RightHandThumb1 -24.326973 -0.000000 -32.862282
LeftUpLeg 0.568648 -5.145669 40.563551
LeftLeg 20.304760 -0.000000 -0.000000
LeftFoot -21.005486 37.312390 -9.599081
LeftToeBase -4.908266 -0.000000 0.000000
RightUpLeg -136.899392 -51.898027 23.798125
RightLeg -8.965108 -0.000000 0.000000
RightFoot 36.171370 -16.169273 9.203184
RightToeBase 16.307013 -0.000000 -0.000000
685
root 0.239407 34.202993 0.328802 12.074814 -19.998659 -48.108689
Spine 5.957509 26.696289 35.430226
Head 6.563935 -7.021622 17.411143
LeftShoulder -20.406714 31.623470 25.259966
LeftArm 56.055987 -73.215984 -61.460405
LeftForeArm 9.797675 -0.000000 13.906534
LeftHand 6.679543 -0.000000 11.497938
LeftHandThumb1 -26.253704 0.000000 33.147579
RightShoulder -10.055183 38.769852 -30.824896
RightArm 60.369469 78.109725 91.521500
RightForeArm 35.274313 -0.000000 60.255257
RightHand -0.239558 -0.000000 30.091474
RightHandThumb1 -24.326973 -0.000000 -32.862282
LeftUpLeg 0.726999 -5.161008 40.445505
LeftLeg 20.156854 -0.000000 -0.000000
LeftFoot -21.252083 36.804290 -10.039781
LeftToeBase -5.810199 -0.000000 0.000000
RightUpLeg -137.006316 -51.828400 23.742136
RightLeg -8.901089 -0.000000 0.000000
RightFoot 36.140262 -16.240662 9.162075
RightToeBase 16.069729 -0.000000 -0.000000
686
root 0.233896 34.208297 0.344633 12.202133 -20.186613 -48.038274
Spine 5.798273 26.800213 35.218831
Head 6.720571 -6.950691 17.410250
LeftShoulder -20.355034 31.533096 25.414624
LeftArm 55.658902 -73.318987 -61.095790
LeftForeArm 9.651007 -0.000000 13.517102
LeftHand 6.769112 -0.000000 11.321703
LeftHandThumb1 -26.253704 0.000000 33.147579
RightShoulder -10.002619 38.723245 -30.728885
RightArm 60.709114 78.141252 91.944698
RightForeArm 35.063198 -0.000000 60.277836
RightHand -0.292949 -0.000000 30.282829
RightHandThumb1 -24.326973 -0.000000 -32.862282
LeftUpLeg 0.839386 -5.228887 40.301688
LeftLeg 20.082865 -0.000000 -0.000000
LeftFoot -21.639135 36.200740 -10.676890
LeftToeBase -6.356362 -0.000000 0.000000
RightUpLeg -137.082584 -51.779387 23.655812
RightLeg -8.824049 -0.000000 0.000000
RightFoot 36.121739 -16.174100 9.130075
RightToeBase 15.969212 -0.000000 -0.000000
687
root 0.235753 34.210933 0.361562 12.317553 -20.362769 -47.952056
Spine 5.658472 26.896198 35.040349
Head 6.864440 -6.901988 17.309408
LeftShoulder -20.335549 31.470934 25.496851
LeftArm 54.847875 -73.258286 -60.206158
LeftForeArm 9.773983 -0.000000 13.124943
LeftHand 6.355672 0.000000 11.509031
LeftHandThumb1 -26.253704 0.000000 33.147579
RightShoulder -9.973545 38.732883 -30.668672
RightArm 60.857048 78.162554 92.175545
RightForeArm 34.853415 -0.000000 60.303717
RightHand -0.301064 -0.000000 30.388509
RightHandThumb1 -24.326973 -0.000000 -32.862282
LeftUpLeg 0.899008 -5.112982 40.176290
LeftLeg 20.094341 -0.000000 -0.000000
LeftFoot -22.172016 35.217392 -11.490849
LeftToeBase -6.416421 -0.000000 0.000000
RightUpLeg -137.100763 -51.761209 23.534735
RightLeg -8.785370 -0.000000 0.000000
RightFoot 36.125677 -16.091955 9.197669
RightToeBase 16.040652 -0.000000 -0.000000
688
root 0.240005 34.209238 0.376360 12.460203 -20.512022 -47.878233
Spine 5.503204 26.995750 34.897874
Head 6.969863 -6.840317 17.129051
LeftShoulder -20.328257 31.479678 25.534240
LeftArm 54.686507 -73.393928 -59.998099
LeftForeArm 9.441420 -0.000000 12.681315
LeftHand 6.716907 -0.000000 11.072780
LeftHandThumb1 -26.253704 0.000000 33.147579
RightShoulder -9.939337 38.725604 -30.637838
RightArm 60.925026 78.194913 92.330478
RightForeArm 34.692400 0.000000 60.351031
RightHand -0.267728 -0.000000 30.262433
RightHandThumb1 -24.326973 -0.000000 -32.862282
LeftUpLeg 0.895894 -5.156437 40.047355
LeftLeg 20.191160 -0.000000 -0.000000
LeftFoot -22.729849 34.076888 -12.361249
LeftToeBase -6.428836 -0.000000 0.000000
RightUpLeg -137.074426 -51.800731 23.397169
RightLeg -8.789876 -0.000000 0.000000
RightFoot 36.125117 -16.040504 9.297247
RightToeBase 16.083610 -0.000000 -0.000000
689
root 0.247551 34.203565 0.393013 12.575339 -20.634696 -47.807021
Spine 5.369260 27.097232 34.790019
Head 7.052724 -6.798662 16.928833
LeftShoulder -20.399401 31.688985 25.554013
LeftArm 55.186170 -73.417121 -60.443542
LeftForeArm 9.496947 -0.000000 12.263109
LeftHand 6.560312 -0.000000 11.321440
LeftHandThumb1 -26.253704 0.000000 33.147579
RightShoulder -9.838453 38.527879 -30.547439
RightArm 61.488627 78.281996 92.891450
RightForeArm 34.578013 0.000000 60.367552
RightHand -0.308213 -0.000000 30.365640
RightHandThumb1 -24.326973 -0.000000 -32.862282
LeftUpLeg 0.881172 -5.455559 39.878542
LeftLeg 20.321442 -0.000000 -0.000000
LeftFoot -22.978014 33.075143 -12.908126
LeftToeBase -6.286952 -0.000000 0.000000
RightUpLeg -137.027991 -51.854819 23.276328
RightLeg -8.812036 -0.000000 0.000000
RightFoot 36.128203 -16.031560 9.406417
RightToeBase 15.957196 -0.000000 -0.000000
